<svg width="42" height="13" viewBox="0 0 42 13" fill="none" xmlns="http://www.w3.org/2000/svg">
<path d="M9.56923 1.08324C10.3151 1.08538 11.0297 1.37143 11.5571 1.87891C12.0845 2.3864 12.3817 3.07408 12.3839 3.79176V9.20824C12.3817 9.92592 12.0845 10.6136 11.5571 11.1211C11.0297 11.6286 10.3151 11.9146 9.56923 11.9168H3.94041C3.19459 11.9146 2.47995 11.6286 1.95257 11.1211C1.4252 10.6136 1.12793 9.92592 1.1257 9.20824V3.79176C1.12793 3.07408 1.4252 2.3864 1.95257 1.87891C2.47995 1.37143 3.19459 1.08538 3.94041 1.08324H9.56923V1.08324ZM9.56923 0H3.94041C1.77314 0 0 1.70625 0 3.79176V9.20824C0 11.2937 1.77314 13 3.94041 13H9.56923C11.7365 13 13.5096 11.2937 13.5096 9.20824V3.79176C13.5096 1.70625 11.7365 0 9.56923 0V0Z" fill="#BE1523"/>
<path d="M10.4131 3.79196C10.2461 3.79196 10.0829 3.74431 9.94403 3.65503C9.80518 3.56575 9.69695 3.43885 9.63305 3.29039C9.56914 3.14192 9.55242 2.97856 9.585 2.82095C9.61758 2.66334 9.698 2.51856 9.81608 2.40493C9.93417 2.2913 10.0846 2.21392 10.2484 2.18257C10.4122 2.15122 10.582 2.16731 10.7362 2.22881C10.8905 2.2903 11.0224 2.39444 11.1152 2.52806C11.208 2.66167 11.2575 2.81876 11.2575 2.97946C11.2577 3.08622 11.236 3.19198 11.1937 3.29066C11.1513 3.38934 11.0892 3.479 11.0107 3.55449C10.9323 3.62999 10.8391 3.68983 10.7365 3.73058C10.634 3.77133 10.5241 3.79219 10.4131 3.79196V3.79196ZM6.75437 4.33343C7.19971 4.33343 7.63506 4.46051 8.00535 4.6986C8.37564 4.93668 8.66425 5.27509 8.83467 5.67101C9.0051 6.06694 9.04969 6.5026 8.96281 6.92291C8.87593 7.34322 8.66147 7.7293 8.34656 8.03233C8.03166 8.33536 7.63044 8.54172 7.19365 8.62532C6.75686 8.70893 6.30412 8.66602 5.89267 8.50202C5.48123 8.33803 5.12956 8.06031 4.88214 7.70398C4.63472 7.34766 4.50266 6.92874 4.50266 6.50019C4.5033 5.92572 4.74073 5.37495 5.16287 4.96874C5.58501 4.56253 6.15737 4.33405 6.75437 4.33343V4.33343ZM6.75437 3.25019C6.08638 3.25019 5.43339 3.4408 4.87798 3.79792C4.32256 4.15503 3.88967 4.66261 3.63404 5.25647C3.37842 5.85033 3.31153 6.5038 3.44185 7.13424C3.57217 7.76468 3.89384 8.34377 4.36618 8.79829C4.83852 9.25281 5.44031 9.56235 6.09547 9.68775C6.75062 9.81315 7.4297 9.74879 8.04685 9.5028C8.66399 9.25682 9.19147 8.84026 9.56258 8.3058C9.9337 7.77134 10.1318 7.14298 10.1318 6.50019C10.1318 5.63824 9.77594 4.81159 9.14256 4.2021C8.50917 3.5926 7.65011 3.25019 6.75437 3.25019V3.25019Z" fill="#BE1523"/>
<path fill-rule="evenodd" clip-rule="evenodd" d="M41.4697 6.5391C41.4697 2.9287 38.3443 0.00126457 34.4897 0.00126457C30.6352 0.00126457 27.5098 2.9287 27.5098 6.5391C27.5098 9.80218 30.0618 12.5069 33.3991 12.9978V8.42953H31.6264V6.5391H33.3991V5.09873C33.3991 3.46048 34.4414 2.55481 36.0356 2.55481C36.7993 2.55481 37.5983 2.68265 37.5983 2.68265V4.29172H36.7177C35.8511 4.29172 35.58 4.79548 35.58 5.31326V6.5391H37.5157L37.2066 8.42953H35.5803V12.9984C38.9176 12.5078 41.4697 9.80306 41.4697 6.5391V6.5391Z" fill="#BE1523"/>
</svg>
