<svg width="42" height="13" viewBox="0 0 42 13" fill="none" xmlns="http://www.w3.org/2000/svg">
<path d="M9.56923 1.08324C10.3151 1.08538 11.0297 1.37143 11.5571 1.87891C12.0845 2.3864 12.3817 3.07408 12.3839 3.79176V9.20824C12.3817 9.92592 12.0845 10.6136 11.5571 11.1211C11.0297 11.6286 10.3151 11.9146 9.56923 11.9168H3.94041C3.19459 11.9146 2.47995 11.6286 1.95257 11.1211C1.4252 10.6136 1.12793 9.92592 1.1257 9.20824V3.79176C1.12793 3.07408 1.4252 2.3864 1.95257 1.87891C2.47995 1.37143 3.19459 1.08538 3.94041 1.08324H9.56923V1.08324ZM9.56923 0H3.94041C1.77314 0 0 1.70625 0 3.79176V9.20824C0 11.2937 1.77314 13 3.94041 13H9.56923C11.7365 13 13.5096 11.2937 13.5096 9.20824V3.79176C13.5096 1.70625 11.7365 0 9.56923 0V0Z" fill="#BE1523"/>
<path d="M10.4141 3.79196C10.2471 3.79196 10.0839 3.74431 9.94501 3.65503C9.80615 3.56575 9.69793 3.43885 9.63402 3.29039C9.57012 3.14192 9.5534 2.97856 9.58598 2.82095C9.61856 2.66334 9.69897 2.51856 9.81706 2.40493C9.93514 2.2913 10.0856 2.21392 10.2494 2.18257C10.4132 2.15122 10.5829 2.16731 10.7372 2.22881C10.8915 2.2903 11.0234 2.39444 11.1162 2.52806C11.2089 2.66167 11.2585 2.81876 11.2585 2.97946C11.2587 3.08622 11.237 3.19198 11.1947 3.29066C11.1523 3.38934 11.0901 3.479 11.0117 3.55449C10.9332 3.62999 10.8401 3.68983 10.7375 3.73058C10.635 3.77133 10.5251 3.79219 10.4141 3.79196V3.79196ZM6.75534 4.33343C7.20069 4.33343 7.63603 4.46051 8.00633 4.6986C8.37662 4.93668 8.66522 5.27509 8.83565 5.67101C9.00608 6.06694 9.05067 6.5026 8.96378 6.92291C8.8769 7.34322 8.66245 7.7293 8.34754 8.03233C8.03263 8.33536 7.63142 8.54172 7.19463 8.62532C6.75784 8.70893 6.3051 8.66602 5.89365 8.50202C5.48221 8.33803 5.13054 8.06031 4.88312 7.70398C4.63569 7.34766 4.50363 6.92874 4.50363 6.50019C4.50427 5.92572 4.74171 5.37495 5.16385 4.96874C5.58599 4.56253 6.15835 4.33405 6.75534 4.33343V4.33343ZM6.75534 3.25019C6.08735 3.25019 5.43437 3.4408 4.87895 3.79792C4.32354 4.15503 3.89065 4.66261 3.63502 5.25647C3.37939 5.85033 3.31251 6.5038 3.44283 7.13424C3.57315 7.76468 3.89481 8.34377 4.36715 8.79829C4.83949 9.25281 5.44129 9.56235 6.09644 9.68775C6.7516 9.81315 7.43068 9.74879 8.04782 9.5028C8.66496 9.25682 9.19244 8.84026 9.56356 8.3058C9.93467 7.77134 10.1328 7.14298 10.1328 6.50019C10.1328 5.63824 9.77692 4.81159 9.14353 4.2021C8.51015 3.5926 7.65109 3.25019 6.75534 3.25019V3.25019Z" fill="#BE1523"/>
<path fill-rule="evenodd" clip-rule="evenodd" d="M41.4697 6.53926C41.4697 2.92885 38.3443 0.00142097 34.4897 0.00142097C30.6352 0.00142097 27.5098 2.92885 27.5098 6.53926C27.5098 9.80234 30.0618 12.5071 33.3991 12.998V8.42968H31.6264V6.53926H33.3991V5.09889C33.3991 3.46064 34.4414 2.55497 36.0356 2.55497C36.7993 2.55497 37.5983 2.68281 37.5983 2.68281V4.29188H36.7177C35.8511 4.29188 35.58 4.79564 35.58 5.31341V6.53926H37.5157L37.2066 8.42968H35.5803V12.9986C38.9176 12.508 41.4697 9.80321 41.4697 6.53926V6.53926Z" fill="#BE1523"/>
</svg>
