<svg width="12" height="15" viewBox="0 0 12 15" fill="none" xmlns="http://www.w3.org/2000/svg">
<path d="M11.2501 5.62502C11.2501 9.71629 6.49048 14.5229 6.2881 14.7255C6.11225 14.9013 5.8738 15 5.62516 15C5.37653 15 5.13808 14.9013 4.96223 14.7255C4.75961 14.5228 0 9.71629 0 5.62502C0 4.13317 0.592637 2.70243 1.64754 1.64753C2.70244 0.592635 4.13319 0 5.62505 0C7.1169 0 8.54766 0.592635 9.60256 1.64753C10.6575 2.70243 11.2501 4.13317 11.2501 5.62502ZM5.62505 8.43754C6.18131 8.43754 6.72509 8.27258 7.1876 7.96354C7.65012 7.6545 8.01061 7.21524 8.22348 6.70133C8.43635 6.18741 8.49205 5.6219 8.38353 5.07633C8.27501 4.53076 8.00714 4.02961 7.6138 3.63628C7.22046 3.24294 6.71932 2.97507 6.17374 2.86655C5.62817 2.75803 5.06266 2.81373 4.54874 3.0266C4.03482 3.23947 3.59556 3.59996 3.28652 4.06248C2.97748 4.52499 2.81252 5.06876 2.81252 5.62502C2.81251 5.99437 2.88525 6.36011 3.02658 6.70134C3.16792 7.04258 3.37509 7.35264 3.63626 7.6138C3.89743 7.87497 4.20748 8.08214 4.54872 8.22348C4.88996 8.36481 5.2557 8.43755 5.62505 8.43754Z" fill="white"/>
</svg>
