<svg width="6" height="9" viewBox="0 0 6 9" fill="none" xmlns="http://www.w3.org/2000/svg">
<path d="M5.67805 4.74634L1.53805 8.88634C1.46471 8.95967 1.38138 8.99634 1.28805 8.99634C1.18805 8.99634 1.10138 8.95967 1.02805 8.88634L0.108047 7.96634C0.0347136 7.893 -0.00195312 7.80967 -0.00195312 7.71634C-0.00195312 7.61634 0.0347136 7.52967 0.108047 7.45634L3.06805 4.49634L0.108047 1.53634C0.0347136 1.463 -0.00195312 1.37967 -0.00195312 1.28634C-0.00195312 1.18634 0.0347136 1.103 0.108047 1.03634L1.02805 0.106339C1.10138 0.0330052 1.18805 -0.00366211 1.28805 -0.00366211C1.38138 -0.00366211 1.46471 0.0330052 1.53805 0.106339L5.67805 4.24634C5.74471 4.31967 5.77805 4.403 5.77805 4.49634C5.77805 4.59634 5.74471 4.67967 5.67805 4.74634Z" fill="#BD0A0A"/>
</svg>
