<svg width="6" height="9" viewBox="0 0 6 9" fill="none" xmlns="http://www.w3.org/2000/svg">
<path d="M5.67756 4.74634L1.53756 8.88634C1.46423 8.95967 1.38089 8.99634 1.28756 8.99634C1.18756 8.99634 1.10089 8.95967 1.02756 8.88634L0.107559 7.96634C0.0342253 7.893 -0.00244141 7.80967 -0.00244141 7.71634C-0.00244141 7.61634 0.0342253 7.52967 0.107559 7.45634L3.06756 4.49634L0.107559 1.53634C0.0342253 1.463 -0.00244141 1.37967 -0.00244141 1.28634C-0.00244141 1.18634 0.0342253 1.103 0.107559 1.03634L1.02756 0.106339C1.10089 0.0330052 1.18756 -0.00366211 1.28756 -0.00366211C1.38089 -0.00366211 1.46423 0.0330052 1.53756 0.106339L5.67756 4.24634C5.74423 4.31967 5.77756 4.403 5.77756 4.49634C5.77756 4.59634 5.74423 4.67967 5.67756 4.74634Z" fill="#BD0A0A"/>
</svg>
