<svg width="39" height="50" viewBox="0 0 39 50" fill="none" xmlns="http://www.w3.org/2000/svg">
<path d="M19.7818 24.1934L20.2199 25.8064H33.5306C36.432 25.8064 38.7117 28.1754 38.7117 31.0128V36.7291C38.7117 37.4274 38.5736 38.0974 38.3222 38.7108C38.5738 39.3258 38.7117 39.9966 38.7117 40.6935V44.8064C38.7117 47.6264 36.4394 50 33.5402 50H15.9663C13.5508 50 11.4864 48.3511 10.885 46.0616L9.85643 42.1411C9.67344 41.4443 9.63749 40.7427 9.72852 40.0698C9.24347 39.4956 8.87621 38.8132 8.66698 38.0572L6.35149 30.4983C6.27894 30.2615 6.2318 30.0217 6.20875 29.7823L0.188726 7.60982C-0.591035 4.79868 1.12318 1.94668 3.89908 1.23085L7.87314 0.179834C9.76401 -0.330229 11.7324 0.273819 13.0156 1.62318C15.1898 1.42252 17.0377 2.96651 17.5119 4.91511L19.2315 11.8204L19.2355 11.8374C19.5755 13.2687 19.2181 14.6812 18.2842 15.7321C18.0815 15.9602 17.8655 16.1562 17.6453 16.3244L18.4681 19.3547H28.2278C29.5665 19.3547 30.6472 20.4354 30.6472 21.7741C30.6472 23.1128 29.5665 24.1934 28.2278 24.1934H19.7818ZM11.2524 35.4838H11.2655L11.7658 37.1595L11.7671 37.1638C11.7864 37.2383 11.8097 37.3111 11.8363 37.3816C11.9348 37.642 12.0813 37.8738 12.2635 38.0682C12.6397 38.469 13.1677 38.7095 13.7384 38.7095H33.5306C34.6115 38.7095 35.4859 37.824 35.4859 36.729V31.0128C35.4859 29.9178 34.6115 29.0322 33.5306 29.0322H17.7311C17.7197 28.9336 17.7003 28.8346 17.6726 28.736L16.4392 24.1934H12.0987C10.76 24.1934 9.67933 23.1128 9.67933 21.7741C9.67933 20.4354 10.76 19.3547 12.0987 19.3547H15.1255L13.7927 14.446L13.7872 14.4467L11.3382 5.38715L11.3335 5.38848L11.1435 4.6888C11.1203 4.5995 11.0909 4.51329 11.0564 4.43046C10.6811 3.53312 9.67384 3.0321 8.70737 3.29593L4.712 4.35259C3.64008 4.62476 3.00666 5.71345 3.299 6.75412L9.43026 29.3364C9.41278 29.4048 9.4131 29.4793 9.43584 29.5535L11.2524 35.4838ZM12.974 40.2414C12.8848 40.5806 12.8787 40.9503 12.9768 41.3225L14.0053 45.2437C14.2432 46.146 15.0495 46.7742 15.9663 46.7742H33.5402C34.6159 46.7742 35.4859 45.8871 35.4859 44.8064V40.6935C35.4859 40.3919 35.4201 40.1061 35.3023 39.8501C34.7822 40.1503 34.1783 40.3224 33.5306 40.3224H13.7384C13.4769 40.3224 13.2213 40.2946 12.974 40.2414Z" fill="#C01E27"/>
</svg>
