<svg width="44" height="50" viewBox="0 0 44 50" fill="none" xmlns="http://www.w3.org/2000/svg">
<path d="M21.6155 0C21.8725 0 22.1294 0 22.3864 0C23.4143 0.390727 23.7998 1.14613 23.7613 2.24017C23.7099 3.69888 23.7484 5.17062 23.7484 6.62933C23.7484 6.75957 23.7613 6.90284 23.787 7.0982C23.9668 6.96796 24.0953 6.87679 24.2238 6.78562C25.4702 5.83485 26.7037 4.88409 27.9629 3.94634C28.9908 3.17791 30.3656 3.64678 30.7254 4.84501C30.9567 5.61344 30.6869 6.3428 29.9545 6.88981C28.0014 8.37458 26.0484 9.85934 24.0953 11.3311C23.8384 11.5264 23.7356 11.7348 23.7356 12.0604C23.7484 15.1472 23.7484 18.2469 23.7484 21.3337C23.7484 21.477 23.7613 21.6072 23.7741 21.7895C23.8898 21.7374 23.9668 21.7114 24.0311 21.6723C26.7422 20.0182 29.4534 18.3772 32.1517 16.7101C32.293 16.6189 32.4086 16.3845 32.4343 16.2152C32.6656 14.1183 32.8712 12.0083 33.0896 9.91144C33.1539 9.28627 33.1924 8.63506 33.398 8.04897C33.6678 7.24147 34.6058 6.83772 35.4281 7.05913C36.289 7.29357 36.8287 8.12711 36.7259 9.07788C36.546 10.771 36.379 12.4642 36.1991 14.2485C36.4047 14.1313 36.5332 14.0662 36.6745 13.988C37.9979 13.1805 39.3085 12.373 40.632 11.5785C41.5957 10.9924 42.675 11.2269 43.1889 12.1256C43.7029 13.0112 43.4074 14.0531 42.4565 14.6392C41.4286 15.2774 40.3879 15.8896 39.3599 16.5277C38.9359 16.7882 38.5119 17.0487 38.0493 17.3352C38.2549 17.4264 38.3963 17.5046 38.5376 17.5567C39.9767 18.1558 41.4158 18.7288 42.8549 19.341C43.7928 19.7447 44.204 20.7085 43.8699 21.6332C43.5102 22.6101 42.4822 23.0399 41.4415 22.6101C39.1544 21.6723 36.8672 20.7215 34.5801 19.7968C34.4002 19.7187 34.1047 19.7447 33.9377 19.8489C31.2008 21.49 28.4897 23.1571 25.7657 24.8242C25.6758 24.8763 25.5987 24.9544 25.483 25.0326C25.6629 25.1498 25.7914 25.2279 25.9199 25.3191C28.5539 26.9341 31.2008 28.5361 33.8349 30.1511C34.1304 30.3334 34.3488 30.3465 34.6701 30.2162C36.9315 29.2654 39.2057 28.3277 41.48 27.403C42.5465 26.9732 43.6001 27.4551 43.9213 28.497C44.1912 29.4087 43.7543 30.2943 42.8035 30.6981C41.2359 31.3623 39.6683 32.0005 38.0236 32.6778C38.2292 32.808 38.3706 32.8992 38.5248 32.9904C39.8225 33.7848 41.1074 34.5663 42.4052 35.3608C42.6236 35.491 42.842 35.6473 43.0091 35.8427C43.5744 36.4809 43.5616 37.4707 43.0219 38.1349C42.4694 38.8122 41.5443 38.9815 40.7605 38.5126C39.3985 37.7051 38.0622 36.8716 36.713 36.0511C36.5717 35.9599 36.4175 35.8817 36.2376 35.7906C36.2248 35.8817 36.2119 35.9338 36.2119 35.9729C36.379 37.627 36.546 39.268 36.7259 40.9221C36.8415 42.0813 36.0577 43.006 34.9527 42.993C33.9634 42.9799 33.2952 42.2636 33.1924 41.1175C32.9611 38.6689 32.7042 36.2334 32.4343 33.7848C32.4086 33.5895 32.2416 33.342 32.0746 33.2378C29.4405 31.6098 26.7936 30.0078 24.1596 28.4058C24.0439 28.3407 23.9155 28.2886 23.787 28.2235C23.7741 28.3147 23.7613 28.3407 23.7613 28.3798C23.7613 31.6228 23.7484 34.8528 23.7741 38.0959C23.7741 38.2782 23.9283 38.5126 24.0825 38.6299C24.8663 39.255 25.6758 39.8411 26.4724 40.4532C27.7059 41.391 28.9394 42.3287 30.1601 43.2795C30.7254 43.7223 30.9053 44.3345 30.7768 45.0247C30.6483 45.676 30.25 46.1318 29.6204 46.3402C28.9908 46.5486 28.4254 46.4183 27.8986 46.0146C26.678 45.0768 25.4573 44.1521 24.2367 43.2274C24.1082 43.1232 23.9668 43.032 23.7613 42.8888C23.7613 44.5819 23.7227 46.1709 23.7741 47.7598C23.8127 48.8539 23.4272 49.6093 22.3993 50C22.1423 50 21.8853 50 21.6283 50C20.5876 49.6223 20.1892 48.8799 20.2278 47.7729C20.2792 46.3272 20.2406 44.8815 20.2406 43.4228C20.2406 43.2665 20.2278 43.1102 20.2149 42.8888C20.0351 43.006 19.9194 43.0841 19.8166 43.1753C18.5574 44.1261 17.3111 45.1029 16.039 46.0406C15.1139 46.7179 13.9061 46.4444 13.405 45.4546C12.9938 44.6471 13.2122 43.7353 14.0089 43.1362C15.9748 41.6384 17.9278 40.1407 19.9066 38.6559C20.1635 38.4605 20.2663 38.2521 20.2663 37.9265C20.2535 34.8528 20.2663 31.7791 20.2535 28.6924C20.2535 28.5361 20.2406 28.3798 20.2278 28.1844C20.0479 28.2886 19.9194 28.3537 19.7909 28.4189C17.2211 29.9818 14.6513 31.5577 12.0687 33.1076C11.6832 33.329 11.5547 33.6025 11.5033 34.0323C11.272 36.4809 11.0279 38.9164 10.7581 41.3649C10.6424 42.4329 9.83295 43.1362 8.88213 43.0451C7.86706 42.9539 7.19891 42.1334 7.276 41.0003C7.3274 40.1928 7.44304 39.3853 7.52013 38.5778C7.61008 37.6661 7.70002 36.7544 7.78996 35.7515C7.54583 35.8817 7.39164 35.9599 7.2503 36.0511C5.95256 36.8325 4.68051 37.653 3.35706 38.3954C2.95874 38.6168 2.44478 38.734 1.99507 38.695C1.27552 38.6299 0.735864 38.0177 0.607374 37.3274C0.466035 36.559 0.748713 35.8687 1.41686 35.4389C2.76601 34.6054 4.14085 33.7848 5.50284 32.9513C5.64418 32.8731 5.77267 32.7689 5.95256 32.6517C5.70843 32.5475 5.55424 32.4824 5.3872 32.4043C3.97381 31.8182 2.56042 31.2451 1.15988 30.659C0.0805655 30.2032 -0.304904 28.9919 0.298998 28.0281C0.774411 27.2727 1.64814 27.0122 2.54757 27.3769C4.82184 28.3016 7.09612 29.2394 9.35754 30.1902C9.62737 30.3074 9.83295 30.3204 10.1028 30.1511C12.7754 28.51 15.4608 26.882 18.1463 25.241C18.2619 25.1628 18.3775 25.0847 18.5317 24.9805C18.4161 24.9023 18.3518 24.8372 18.2747 24.7981C15.5251 23.118 12.7754 21.4509 10.0128 19.7838C9.85865 19.6926 9.58882 19.6926 9.40893 19.7708C7.09612 20.7085 4.809 21.6723 2.49618 22.6101C1.51965 23.0138 0.504582 22.584 0.131961 21.6463C-0.240659 20.7085 0.196206 19.7187 1.18558 19.3019C1.64814 19.1065 2.11071 18.9242 2.56042 18.7288C3.66543 18.273 4.77045 17.8171 5.93971 17.3222C5.73412 17.192 5.59278 17.0878 5.4386 16.9966C4.14085 16.2021 2.85595 15.4207 1.57105 14.6262C1.32692 14.4699 1.08279 14.3006 0.91575 14.0662C0.388941 13.415 0.440337 12.4512 0.992844 11.813C1.5582 11.1487 2.44478 11.0055 3.21572 11.4613C4.57771 12.2688 5.91401 13.1024 7.26315 13.9229C7.40449 14.0141 7.54583 14.0792 7.76426 14.2094C7.73857 13.8317 7.71287 13.5582 7.68717 13.2847C7.54583 11.839 7.37879 10.4064 7.2503 8.96067C7.16036 7.86663 7.81566 7.05913 8.83073 6.95494C9.7944 6.85074 10.6167 7.52801 10.7324 8.59599C11.0022 11.0185 11.2463 13.454 11.4776 15.8765C11.5162 16.3454 11.6704 16.6189 12.0815 16.8664C14.6513 18.4032 17.2083 19.9661 19.7652 21.529C19.8937 21.6072 20.0222 21.6723 20.1764 21.7505C20.2021 21.6463 20.2149 21.5942 20.2149 21.5551C20.2149 18.3381 20.2278 15.1081 20.2021 11.8911C20.2021 11.7088 20.0479 11.4743 19.8937 11.3571C17.9407 9.84631 15.9619 8.36155 14.0089 6.86377C13.0966 6.16046 12.9039 5.1055 13.5206 4.25892C14.1245 3.42537 15.2038 3.32118 16.129 4.01146C17.3753 4.94921 18.6217 5.89998 19.868 6.85074C19.958 6.91586 20.0608 6.96796 20.2278 7.05913C20.2278 5.39203 20.2663 3.79005 20.2149 2.20109C20.1892 1.13311 20.5747 0.377703 21.6155 0Z" fill="#C01E27"/>
</svg>
