<svg width="17" height="29" viewBox="0 0 17 29" fill="none" xmlns="http://www.w3.org/2000/svg">
<path d="M16.1087 8.14286C15.6772 6.92585 14.5266 6.10714 13.2321 6.10714H8.14286V3.05357C8.14286 1.37189 6.78203 0 5.08929 0H3.05357C1.37189 0 0 1.36083 0 3.05357V25.4464C0 27.1281 1.37189 28.5 3.05357 28.5H13.2321C14.9138 28.5 16.2857 27.1392 16.2857 25.4575C16.2857 25.4575 16.2857 25.4575 16.2857 25.4464V9.16071C16.2857 8.81774 16.2304 8.47477 16.1087 8.14286ZM14.25 24.4286C14.25 25.5571 13.3428 26.4643 12.2143 26.4643H4.07143C2.94293 26.4643 2.03571 25.5571 2.03571 24.4286C2.03571 23.3001 2.94293 22.3929 4.07143 22.3929H10.1786V20.3571H4.07143C2.94293 20.3571 2.03571 19.4499 2.03571 18.3214V3.90547C2.04678 3.8059 2.05784 3.70633 2.09103 3.61782C2.3455 2.52252 3.4408 1.83657 4.5361 2.09103C5.2995 2.26805 5.88587 2.85443 6.06289 3.61782C6.09608 3.72845 6.10714 3.85016 6.11821 3.96079V8.14286H12.2253C13.3538 8.14286 14.2611 9.05008 14.2611 10.1786V24.4286H14.25Z" fill="white"/>
</svg>
