<svg width="79" height="70" viewBox="0 0 79 70" fill="none" xmlns="http://www.w3.org/2000/svg">
<path d="M0 53.2867C1.59053 36.9939 3.71125 20.8191 12.7832 6.5924C20.4413 -5.39109 31.8107 -10.822 45.7131 -11.5304C51.2506 -11.8256 56.6702 -11.5304 62.0309 -9.87752C71.9275 -6.74883 78.6431 0.571142 78.9377 10.9017C79.5267 29.4968 75.9922 47.3835 66.1545 63.3812C58.9676 75.0695 47.716 80.3234 34.2849 81.2088C29.2187 81.563 24.0937 81.3859 19.0864 80.1463C6.89232 77.0766 0.0589087 68.3989 0 55.8841C0 55.0577 0 54.1722 0 53.2867ZM64.1516 17.2182C64.1516 15.8604 64.2105 14.4437 64.1516 13.0859C63.7392 7.41885 60.9705 3.40468 55.9044 2.04694C44.3582 -0.96369 30.2791 1.16146 23.9169 14.9159C17.8493 27.962 14.6094 41.7755 14.9628 56.2973C15.1395 62.2596 18.1439 66.3918 23.4457 67.6905C35.9343 70.7011 49.3655 67.8676 55.7276 53.6409C60.9705 42.1887 63.5036 29.91 64.1516 17.2182Z" fill="white"/>
</svg>
