<svg width="150" height="150" viewBox="0 0 150 150" fill="none" xmlns="http://www.w3.org/2000/svg">
<path d="M0 110.965C3.00368 80.1969 7.0086 49.6512 24.1407 22.7845C38.6029 0.153939 60.0737 -10.1023 86.3281 -11.44C96.7854 -11.9974 107.02 -11.44 117.144 -8.31857C135.833 -2.41011 148.515 11.4135 149.072 30.9225C150.184 66.0389 143.509 99.8174 124.931 130.029C111.359 152.102 90.1105 162.023 64.7461 163.696C55.1788 164.365 45.5003 164.03 36.0442 161.689C13.016 155.892 0.111248 139.504 0 115.871C0 114.31 0 112.638 0 110.965ZM121.149 42.8509C121.149 40.2869 121.26 37.6114 121.149 35.0473C120.37 24.3452 115.141 16.7645 105.574 14.2005C83.7694 8.51497 57.1812 12.5283 45.1665 38.5032C33.708 63.1404 27.5894 89.2268 28.2569 116.651C28.5906 127.91 34.2642 135.714 44.2765 138.167C67.861 143.852 93.2254 138.501 105.24 111.634C115.141 90.0071 119.925 66.8192 121.149 42.8509Z" fill="white"/>
</svg>
