<svg width="50" height="50" viewBox="0 0 50 50" fill="none" xmlns="http://www.w3.org/2000/svg">
<path d="M2.43747 35.783C0.87668 37.3458 0 39.4641 0 41.6728C0 43.8814 0.87668 45.9998 2.43747 47.5625C4.0002 49.1233 6.11856 50 8.32722 50C10.5359 50 12.6542 49.1233 14.217 47.5625C15.6892 45.9826 16.4907 43.8929 16.4526 41.7336C16.4145 39.5744 15.5398 37.5143 14.0127 35.9873C12.4857 34.4602 10.4256 33.5855 8.26635 33.5474C6.10713 33.5093 4.01742 34.3108 2.43747 35.783ZM10.2997 43.6453C9.77659 44.1684 9.06706 44.4623 8.32722 44.4623C7.58739 44.4623 6.87785 44.1684 6.35471 43.6453C5.83157 43.1221 5.53767 42.4126 5.53767 41.6728C5.53767 40.9329 5.83157 40.2234 6.35471 39.7003C6.61298 39.4399 6.92025 39.2332 7.2588 39.0921C7.59734 38.9511 7.96047 38.8785 8.32722 38.8785C8.69398 38.8785 9.0571 38.9511 9.39565 39.0921C9.73419 39.2332 10.0415 39.4399 10.2997 39.7003C10.5601 39.9585 10.7668 40.2658 10.9079 40.6044C11.0489 40.9429 11.1215 41.306 11.1215 41.6728C11.1215 42.0395 11.0489 42.4027 10.9079 42.7412C10.7668 43.0798 10.5601 43.387 10.2997 43.6453ZM8.32722 22.2255C7.5904 22.2255 6.88376 22.5182 6.36275 23.0392C5.84174 23.5602 5.54904 24.2668 5.54904 25.0037C5.54904 25.7405 5.84174 26.4471 6.36275 26.9681C6.88376 27.4891 7.5904 27.7819 8.32722 27.7819C12.0113 27.7819 15.5445 29.2454 18.1496 31.8504C20.7546 34.4555 22.2181 37.9887 22.2181 41.6728C22.2181 42.4096 22.5108 43.1162 23.0319 43.6373C23.5529 44.1583 24.2595 44.451 24.9963 44.451C25.7332 44.451 26.4398 44.1583 26.9608 43.6373C27.4818 43.1162 27.7745 42.4096 27.7745 41.6728C27.7745 36.515 25.7256 31.5685 22.0785 27.9215C18.4315 24.2744 13.485 22.2255 8.32722 22.2255ZM8.32722 11.1127C7.5904 11.1127 6.88376 11.4054 6.36275 11.9265C5.84174 12.4475 5.54904 13.1541 5.54904 13.8909C5.54904 14.6277 5.84174 15.3344 6.36275 15.8554C6.88376 16.3764 7.5904 16.6691 8.32722 16.6691C14.9586 16.6691 21.3184 19.3034 26.0075 23.9925C30.6966 28.6816 33.3309 35.0414 33.3309 41.6728C33.3309 42.4096 33.6236 43.1162 34.1446 43.6373C34.6656 44.1583 35.3723 44.451 36.1091 44.451C36.8459 44.451 37.5525 44.1583 38.0735 43.6373C38.5946 43.1162 38.8873 42.4096 38.8873 41.6728C38.8657 33.5716 35.6515 25.8054 29.9415 20.0585C24.1946 14.3485 16.4284 11.1343 8.32722 11.1127ZM37.8038 12.1962C29.9659 4.41048 19.3748 0.0282937 8.32722 0C7.5904 0 6.88376 0.292701 6.36275 0.813712C5.84174 1.33472 5.54904 2.04136 5.54904 2.77819C5.54904 3.51501 5.84174 4.22165 6.36275 4.74266C6.88376 5.26367 7.5904 5.55637 8.32722 5.55637C17.9059 5.55637 27.0922 9.36148 33.8654 16.1346C40.6385 22.9078 44.4436 32.0941 44.4436 41.6728C44.4436 42.4096 44.7363 43.1162 45.2573 43.6373C45.7783 44.1583 46.485 44.451 47.2218 44.451C47.9586 44.451 48.6653 44.1583 49.1863 43.6373C49.7073 43.1162 50 42.4096 50 41.6728C49.9717 30.6252 45.5895 20.0341 37.8038 12.1962Z" fill="#C01E27"/>
</svg>
