<?xml version="1.0" encoding="UTF-8" standalone="no"?>
<!DOCTYPE svg PUBLIC "-//W3C//DTD SVG 1.1//EN" "http://www.w3.org/Graphics/SVG/1.1/DTD/svg11.dtd">
<svg width="100%" height="100%" viewBox="0 0 537 107" version="1.1" xmlns="http://www.w3.org/2000/svg" xmlns:xlink="http://www.w3.org/1999/xlink" xml:space="preserve" xmlns:serif="http://www.serif.com/" style="fill-rule:evenodd;clip-rule:evenodd;stroke-linejoin:round;stroke-miterlimit:2;">
    <g>
        <path d="M411.716,60.908C411.107,66.049 409.895,71.084 408.914,76.158C407.819,81.819 406.644,87.466 405.503,93.118C405.405,93.606 405.338,94.103 405.198,94.577C405.014,95.194 404.61,95.615 403.921,95.623C402.927,95.633 401.932,95.641 400.939,95.603C397.361,95.469 393.784,95.315 390.692,95.188C386.03,95.081 381.853,94.993 377.676,94.886C375.141,94.82 374.903,94.569 375.407,92.122C377.193,83.455 378.87,74.767 380.614,66.092C381.283,62.768 382.269,59.54 383.745,56.473C384.743,54.399 385.925,52.441 387.488,50.749C392.599,45.218 398.921,43.882 406.019,45.644C408.846,46.345 410.603,48.305 411.375,51.131C412.26,54.365 412.104,57.638 411.716,60.908ZM293.64,47.283C292.881,51.282 292.074,55.272 291.275,59.262C289.326,68.996 287.372,78.73 285.415,88.462C284.848,91.284 284.842,91.291 281.967,91.317C280.18,91.332 278.392,91.319 276.299,91.319C273.826,91.287 271.037,91.472 268.279,90.992C267.306,90.822 266.327,90.609 265.399,90.279C263.201,89.5 261.758,87.934 260.991,85.743C260.496,84.326 260.272,82.863 260.211,81.361C260.049,77.363 260.583,73.441 261.355,69.531C262.088,65.825 262.927,62.152 264.234,58.6C264.957,56.637 265.834,54.751 266.938,52.971C269.991,48.049 274.453,45.398 280.182,45.019C284.247,44.749 288.325,44.905 292.372,45.458C293.581,45.623 293.883,46.005 293.64,47.283ZM90.411,90.59C86.475,91.421 82.511,91.519 78.556,90.775C73.017,89.734 69.804,86.522 68.64,80.99C67.958,77.749 67.84,74.467 68.149,71.192C69.106,61.065 71.086,51.134 74.19,41.443C75.162,38.408 76.439,35.498 78,32.709C82.23,25.154 88.667,21.136 97.285,20.568C99.877,20.396 102.453,20.534 105.004,21.044C110.212,22.084 113.515,25.101 114.65,30.356C114.839,31.229 115.055,32.107 115.126,32.993C115.261,34.676 115.3,36.367 115.379,38.055C115.274,43.152 114.435,48.149 113.489,53.135C112.375,59 111.107,64.823 109.185,70.485C107.837,74.454 106.174,78.273 103.733,81.714C100.426,86.376 96.024,89.403 90.411,90.59ZM323.051,61.815C324.189,57.438 325.856,53.315 328.994,49.94C330.577,48.236 332.468,46.956 334.658,46.175C338.593,44.77 342.619,44.505 346.693,45.476C347.553,45.681 348.407,46.008 349.192,46.416C350.784,47.243 351.79,48.603 352.117,50.354C352.777,53.893 351.87,58.376 347.614,60.892C345.702,62.023 343.6,62.578 341.41,62.886C338.142,63.345 334.86,63.235 331.58,63.199C329.093,63.199 326.607,63.226 324.122,63.185C323.221,63.17 322.831,62.662 323.051,61.815ZM478.384,61.576C479.318,58.206 480.555,54.961 482.569,52.063C485.072,48.461 488.453,46.22 492.776,45.381C495.948,44.765 499.105,44.701 502.241,45.521C506.04,46.513 507.699,48.751 507.581,52.68C507.46,56.739 505.557,59.672 501.9,61.431C500.276,62.212 498.541,62.632 496.753,62.882C493.485,63.339 490.203,63.242 486.92,63.229C484.533,63.229 482.145,63.26 479.758,63.216C478.443,63.193 478.065,62.732 478.384,61.576ZM476.883,74.711C478.772,74.77 480.664,74.843 482.545,75.027C486.417,75.403 490.297,75.498 494.177,75.347C498.681,75.17 503.068,74.35 507.242,72.567C518.69,67.677 521.847,57.152 521.145,49.053C520.552,42.204 516.99,37.36 510.56,34.764C509.276,34.245 507.925,33.856 506.573,33.545C502.056,32.505 497.468,32.511 492.909,33.036C483.341,34.138 475.831,38.659 470.681,46.901C469.146,49.356 467.901,51.953 466.878,54.661C464.866,59.991 463.622,65.513 462.707,71.123C462.063,75.073 461.865,79.045 462.157,83.027C462.578,88.758 464.374,93.926 468.702,97.968C468.977,98.225 469.349,98.473 469.09,99.168C465.908,99.279 462.692,98.675 459.456,98.496C458.896,98.465 458.584,98.027 458.622,97.463C458.664,96.871 458.783,96.284 458.876,95.696C459.018,94.813 459.183,93.933 459.308,93.047C459.388,92.473 459.131,92.068 458.537,92.011C457.845,91.943 457.147,91.913 456.453,91.924C454.753,91.95 453.073,91.806 451.401,91.516C449.405,91.169 448.214,90.008 447.818,88.027C447.484,86.36 447.274,84.678 447.411,82.982C447.61,80.503 447.811,78.021 448.131,75.556C448.99,68.942 450.317,62.406 451.572,55.86C452.153,52.832 452.752,49.806 453.396,46.79C453.742,45.171 453.978,44.983 455.578,44.955C457.966,44.915 460.355,44.942 462.744,44.937C464.336,44.934 465.93,44.96 467.521,44.909C468.777,44.869 469.03,44.655 469.305,43.362C469.823,40.931 470.302,38.489 470.759,36.045C470.957,34.988 470.682,34.559 469.626,34.366C467.866,34.045 466.095,33.762 464.319,33.549C462.047,33.277 459.764,33.103 457.49,32.86C456.722,32.779 456.402,32.379 456.492,31.678C456.567,31.087 456.676,30.498 456.805,29.915C457.898,24.961 458.986,20.005 460.103,15.056C460.871,11.66 461.696,8.277 462.464,4.881C462.674,3.95 462.373,3.522 461.433,3.501C458.647,3.439 455.861,3.439 453.074,3.428C449.425,3.414 449.875,3.553 449.046,6.496C447.023,13.679 445.222,20.92 443.6,28.205C443.341,29.37 443.09,30.537 442.789,31.692C442.629,32.309 442.213,32.734 441.538,32.798C440.844,32.865 440.149,32.91 439.455,32.958C436.276,33.179 433.126,33.636 429.973,34.08C428.641,34.268 428.103,34.916 427.881,36.153C427.46,38.503 426.917,40.83 426.476,43.176C426.215,44.568 426.502,44.893 428.065,44.915C430.951,44.957 433.838,44.928 436.724,44.942C437.519,44.945 438.317,44.962 439.107,45.039C439.692,45.097 439.956,45.513 439.874,46.085C439.776,46.774 439.628,47.454 439.501,48.138C438.194,55.181 436.817,62.21 435.603,69.269C434.726,74.367 434.055,79.503 434.134,84.7C434.192,88.525 434.756,92.234 436.592,95.659C436.777,96.004 436.995,96.355 436.773,96.792C436.061,97.288 435.25,97.027 434.483,96.993C429.91,96.795 425.338,96.551 420.765,96.351C417.583,96.212 417.419,96.52 418.295,92.925C420.107,85.483 421.875,78.029 423.61,70.568C424.923,64.919 425.558,59.198 425.209,53.387C425.09,51.389 424.765,49.431 424.211,47.515C422.13,40.314 417.478,35.549 410.224,33.781C401.931,31.76 393.818,32.241 386.328,36.919C385.847,37.22 385.393,37.687 384.602,37.414C384.417,36.72 384.179,35.965 384.023,35.193C383.857,34.379 383.371,33.994 382.581,33.989C380.192,33.972 377.804,33.968 375.415,33.975C374.531,33.978 373.912,34.341 373.678,35.277C373.34,36.627 372.907,37.954 372.584,39.308C370.51,48.021 368.768,56.804 367.221,65.623C365.708,74.246 364.321,82.89 362.876,91.525C362.389,94.435 362.387,94.437 359.526,94.425C358.73,94.421 357.934,94.405 357.138,94.385C354.156,94.305 354.084,94.287 354.72,91.303C355.545,87.43 355.618,87.289 351.687,88.415C345.435,90.205 339.027,90.999 332.542,91.27C330.739,91.346 328.953,91.19 327.198,90.836C323.657,90.123 321.341,88.056 320.439,84.487C319.717,81.634 319.87,78.761 320.182,75.885C320.274,75.046 320.725,74.68 321.621,74.708C323.509,74.77 325.402,74.848 327.283,75.029C331.155,75.403 335.034,75.492 338.914,75.347C343.219,75.186 347.42,74.412 351.427,72.785C361.055,68.875 366.768,59.651 365.878,49.304C365.28,42.333 361.774,37.383 355.215,34.749C353.929,34.233 352.581,33.834 351.226,33.538C346.305,32.46 341.323,32.463 336.379,33.2C326.332,34.697 318.958,40.075 314.15,49.001C312.872,51.372 311.818,53.839 310.951,56.389C309.184,61.587 307.948,66.911 307.259,72.356C306.401,79.139 306.268,85.86 309.22,92.279C309.682,93.283 309.353,93.709 308.144,93.712C305.159,93.721 302.172,93.683 299.187,93.649C298.793,93.644 298.391,93.593 298.011,93.492C297.587,93.381 297.321,93.05 297.401,92.61C297.614,91.437 297.845,90.267 298.124,89.109C300.805,77.985 303.359,66.833 305.599,55.612C308.755,39.806 311.332,23.896 313.921,7.988C314.097,6.908 314.245,5.822 314.368,4.736C314.451,4.002 314.131,3.593 313.41,3.518C312.718,3.447 312.019,3.434 311.324,3.43C309.432,3.419 307.541,3.424 305.65,3.426C300.945,3.432 301.806,3.317 301.05,7.372C299.555,15.391 298.188,23.433 296.765,31.465C296.679,31.954 296.606,32.45 296.464,32.924C296.269,33.577 295.823,33.887 295.112,33.769C294.425,33.655 293.731,33.582 293.044,33.464C288.605,32.707 284.131,32.571 279.653,32.889C270.39,33.547 262.901,37.553 257.284,44.978C254.68,48.418 252.749,52.226 251.265,56.264C248.601,63.513 247.073,71.003 246.824,78.717C246.679,83.222 247.23,87.662 249.134,91.835C249.217,92.017 249.318,92.19 249.387,92.376C249.727,93.295 249.487,93.738 248.537,93.76C246.049,93.815 243.561,93.836 241.073,93.842C237.935,93.85 237.836,93.727 238.454,90.634C241.282,76.488 244.117,62.345 246.945,48.2C247.784,44.006 248.624,39.812 249.43,35.61C249.639,34.521 249.293,34.023 248.278,34.008C244.895,33.959 241.512,33.97 238.128,33.975C237.232,33.977 236.638,34.402 236.407,35.312C236.015,36.854 235.552,38.379 235.192,39.928C231.811,54.472 229.254,69.173 226.832,83.9C226.365,86.746 225.942,89.601 225.448,92.443C225.233,93.677 224.866,93.95 223.654,93.986C223.161,94.001 222.661,93.958 222.172,93.884C221.721,93.816 221.47,93.457 221.52,93.04C221.637,92.057 221.823,91.08 221.996,90.103C222.497,87.272 222.389,87.123 219.576,88.071C213.772,90.029 207.792,90.908 201.705,91.235C199.706,91.344 197.723,91.252 195.756,90.906C191.643,90.186 189.376,87.977 188.658,83.919C188.31,81.958 188.192,79.98 188.338,77.974C188.73,72.589 189.798,67.332 191.21,62.139C191.916,59.544 192.866,57.03 194.111,54.635C197.345,48.413 202.517,45.231 209.465,44.973C215.584,44.745 221.576,45.563 227.386,47.563C227.95,47.757 228.51,47.967 229.084,48.13C229.885,48.359 230.258,48.203 230.421,47.44C231.048,44.523 231.662,41.602 232.206,38.669C232.428,37.472 232.228,37.147 230.996,36.61C229.449,35.935 227.876,35.293 226.265,34.796C220.197,32.922 213.972,32.377 207.665,32.935C198.8,33.72 191.482,37.497 185.9,44.497C184.218,46.606 182.765,48.871 181.602,51.3C177.058,60.795 174.866,70.833 174.974,81.344C175.018,85.564 175.934,89.639 178.004,93.388C178.239,93.814 178.56,94.23 178.253,95.027C176.614,95.153 174.858,95.256 173.09,95.125C172.468,95.079 172.271,94.626 172.354,94.072C172.502,93.09 172.697,92.114 172.86,91.133C173.023,90.153 173.2,89.175 173.315,88.189C173.373,87.686 172.979,87.461 172.556,87.538C171.874,87.662 171.198,87.856 170.542,88.085C164.66,90.14 158.561,90.943 152.374,91.257C150.475,91.354 148.59,91.223 146.726,90.888C142.656,90.156 140.394,87.884 139.71,83.811C139.414,82.042 139.338,80.25 139.439,78.453C139.817,71.751 141.201,65.248 143.337,58.902C144.165,56.443 145.303,54.117 146.822,51.994C149.111,48.797 152.14,46.649 155.949,45.662C157.585,45.238 159.255,44.963 160.961,44.941C166.981,44.861 172.873,45.603 178.576,47.61C178.763,47.676 178.948,47.751 179.137,47.814C181.274,48.513 181.351,48.485 181.846,46.179C182.305,44.039 182.71,41.888 183.131,39.74C183.207,39.351 183.231,38.95 183.301,38.559C183.468,37.629 183.064,37.018 182.234,36.669C181.043,36.168 179.86,35.637 178.64,35.218C171.739,32.854 164.628,32.207 157.429,33.07C149.505,34.021 142.846,37.529 137.655,43.675C135.327,46.431 133.479,49.489 131.969,52.758C129.616,57.85 128.128,63.209 127.134,68.711C126.408,72.73 125.855,76.777 126.01,80.876C126.208,86.132 127.254,91.147 130.455,95.5C130.684,95.811 130.947,96.14 130.78,96.748C129.576,97.282 128.175,97.189 126.829,97.282C122.957,97.552 119.08,97.739 115.206,97.975C112.028,98.168 108.852,98.395 105.673,98.58C105.237,98.606 104.658,98.796 104.46,97.996C104.736,97.77 105.019,97.498 105.339,97.28C111.254,93.264 115.521,87.849 118.732,81.532C120.451,78.152 121.852,74.642 122.935,71.013C125.791,61.452 127.694,51.692 128.725,41.777C129.188,37.322 129.166,32.832 128.309,28.39C126.411,18.557 120.81,12.093 111.012,9.573C103.839,7.729 96.615,7.891 89.433,9.585C81.492,11.459 75.028,15.7 69.924,22.036C67.476,25.074 65.501,28.408 63.855,31.941C62.086,35.739 60.701,39.68 59.614,43.722C57.572,51.322 56.049,59.035 55.031,66.833C54.387,71.77 54.102,76.735 54.834,81.716C56.161,90.728 60.327,97.61 69.111,101.112C68.912,101.453 68.713,101.793 68.515,102.133C64.26,102.596 60.041,103.304 55.858,104.192C53.723,104.645 51.634,105.322 49.534,105.934C49.108,106.058 48.589,106.206 48.594,106.841C49.186,107.137 49.781,106.94 50.363,106.877C56.791,106.175 63.207,105.318 69.649,104.786C80.656,103.877 91.673,103.057 102.699,102.408C115.017,101.682 127.346,101.119 139.675,100.611C151.309,100.132 162.947,99.708 174.588,99.451C196.279,98.974 217.972,98.485 239.667,98.273C272.709,97.951 305.753,97.872 338.795,98.488C355.811,98.806 372.831,99.007 389.843,99.442C403.771,99.797 417.693,100.381 431.615,100.941C441.856,101.352 452.093,101.873 462.331,102.377C466.008,102.558 469.683,102.799 473.355,103.07C480.004,103.559 486.654,104.046 493.295,104.619C498.647,105.081 503.99,105.66 509.334,106.204C511.692,106.443 514.044,106.723 516.417,106.987C516.414,106.32 516.083,106.081 515.714,105.963C514.294,105.508 512.883,104.989 511.429,104.685C508.12,103.993 504.787,103.421 501.466,102.781C501.122,102.715 500.554,102.796 500.644,102.197C500.672,102.007 501.048,101.801 501.302,101.722C503.106,101.163 504.917,100.627 506.73,100.096C507.896,99.755 508.535,99.042 508.741,97.796C509.128,95.442 509.638,93.107 510.103,90.765C510.767,87.414 510.769,87.414 507.603,88.253C507.218,88.355 506.831,88.448 506.448,88.555C500.278,90.282 493.966,91.019 487.583,91.275C485.879,91.343 484.194,91.171 482.537,90.842C478.998,90.137 476.668,88.099 475.752,84.524C475.021,81.67 475.161,78.799 475.471,75.924C475.565,75.058 476.004,74.685 476.883,74.711Z" style="fill:white;fill-rule:nonzero;"/>
        <path d="M29.022,17.076C28.345,20.892 27.412,24.652 26.086,28.301C25.407,30.173 24.579,31.977 23.413,33.606C21.252,36.622 18.35,38.315 14.614,38.433C12.629,38.495 10.642,38.457 8.656,38.455C8.156,38.454 7.664,38.388 7.258,38.038C7.054,37.454 7.169,36.871 7.31,36.289C9.566,26.927 11.822,17.566 14.079,8.204C14.172,7.819 14.257,7.429 14.377,7.051C14.58,6.418 15.036,6.045 15.694,6.046C18.573,6.051 21.464,5.924 24.326,6.154C27.378,6.399 28.895,8.104 29.299,11.144C29.564,13.139 29.368,15.124 29.022,17.076ZM35.635,10.885C35.156,5.076 31.952,1.617 26.247,0.57C23.673,0.098 21.095,0.29 18.577,0.29C16.431,0.442 14.351,0.645 12.266,0.719C10.754,0.773 9.842,1.411 9.537,2.903C9.457,3.291 9.335,3.672 9.222,4.052C5.779,15.584 2.919,27.258 0.583,39.063C0.372,40.134 0.17,41.208 0.013,42.288C-0.066,42.836 0.223,43.244 0.743,43.438C1.019,43.541 1.318,43.606 1.613,43.636C5.868,44.072 10.135,44.455 14.412,44.171C20.674,43.756 25.569,40.89 29.044,35.643C30.479,33.474 31.578,31.138 32.41,28.68C33.718,24.813 34.673,20.86 35.317,16.825C35.633,14.848 35.799,12.873 35.635,10.885Z" style="fill:white;fill-rule:nonzero;"/>
        <path d="M42.428,22.299C44.64,17.854 48.039,16.818 52.264,17.426C54.304,17.721 55.155,18.955 54.893,21.001C54.605,23.245 53.195,24.517 51.131,25.124C49.306,25.662 47.417,25.717 45.853,25.659C45.13,25.659 44.733,25.654 44.336,25.66C41.238,25.709 40.794,25.585 42.428,22.299ZM55.263,38.766C55.634,37.344 55.194,36.975 53.69,37.28C52.423,37.537 51.168,37.857 49.895,38.079C47.73,38.458 45.54,38.59 43.351,38.403C40.934,38.197 39.77,37.029 39.534,34.619C39.457,33.84 39.545,33.03 39.665,32.251C39.796,31.392 40.228,31.054 41.087,31.04C42.479,31.017 43.871,31.033 45.264,31.033C45.264,31.081 45.263,31.128 45.263,31.174C46.557,31.174 47.853,31.228 49.143,31.162C51.25,31.054 53.279,30.56 55.17,29.605C59.205,27.568 61.138,24.159 61.324,19.754C61.473,16.237 59.621,13.618 56.357,12.372C49.613,9.798 41.501,12.423 37.766,18.586C34.817,23.45 33.395,28.836 33.41,34.515C33.424,40.101 36.49,43.399 42.023,44.116C42.81,44.218 43.611,44.221 44.406,44.227C46.507,44.241 48.592,43.969 50.62,43.488C55.083,42.431 54.259,42.617 55.263,38.766Z" style="fill:white;fill-rule:nonzero;"/>
        <path d="M244.12,30.173C248.256,30.619 252.189,28.207 253.422,24.242C255.418,17.825 250.866,14.311 246.791,14.429C241.899,14.393 237.805,18.5 237.881,23.366C237.937,27.01 240.477,29.782 244.12,30.173Z" style="fill:white;fill-rule:nonzero;"/>
        <path d="M528.034,28.882C524.675,28.837 522.029,26.075 522.099,22.688C522.169,19.254 524.872,16.625 528.235,16.715C531.621,16.806 534.029,19.491 533.926,23.062C533.828,26.468 531.339,28.926 528.034,28.882ZM528.203,15.026C523.653,14.982 520.096,18.36 520.078,22.743C520.06,27.149 523.58,30.604 528.08,30.6C532.562,30.596 536.128,27.079 536.081,22.713C536.034,18.438 532.58,15.067 528.203,15.026Z" style="fill:white;fill-rule:nonzero;"/>
        <path d="M103.774,38.879C98.812,43.022 93.865,47.183 88.877,51.294C87.763,52.212 87.006,53.283 86.488,54.626C84.95,58.614 83.332,62.572 81.748,66.543C81.453,67.282 81.149,68.019 80.899,68.773C80.815,69.025 80.771,69.452 80.911,69.582C81.276,69.923 81.628,69.576 81.906,69.337C85.524,66.224 89.148,63.116 92.731,59.962C93.313,59.449 93.783,58.765 94.17,58.084C97.66,51.947 101.121,45.794 104.589,39.646C104.65,39.036 104.383,38.776 103.774,38.879Z" style="fill:white;fill-rule:nonzero;"/>
        <path d="M528.155,22.258C527.633,22.303 527.197,22.158 527.041,21.584C526.872,20.963 527.264,20.398 527.892,20.347C528.574,20.291 529.147,20.641 529.244,21.172C529.34,21.705 528.864,22.197 528.155,22.258ZM530.965,22.291C531.795,20.363 531.194,19.259 529.217,18.854C528.734,18.755 528.232,18.746 528.232,18.746C527.538,18.746 527.338,18.734 527.14,18.748C525.445,18.868 525.028,19.251 524.977,20.893C524.934,22.283 524.955,23.676 524.982,25.067C524.99,25.452 525.057,25.867 525.224,26.206C525.331,26.424 525.651,26.586 525.909,26.669C526.232,26.772 526.522,26.536 526.614,26.269C526.804,25.712 526.867,25.111 527.051,24.551C527.23,24.007 528.152,23.789 528.558,24.19C528.831,24.459 529.052,24.795 529.246,25.13C529.492,25.554 529.637,26.043 529.917,26.441C530.166,26.795 530.634,26.85 530.993,26.669C531.206,26.56 531.44,26.181 531.41,25.958C531.318,25.278 531.173,24.586 530.915,23.954C530.67,23.355 530.701,22.905 530.965,22.291Z" style="fill:white;fill-rule:nonzero;"/>
    </g>
</svg>
