<?xml version="1.0" encoding="utf-8"?>
<!-- Generator: Adobe Illustrator 21.1.0, SVG Export Plug-In . SVG Version: 6.00 Build 0)  -->
<svg version="1.1" xmlns="http://www.w3.org/2000/svg" xmlns:xlink="http://www.w3.org/1999/xlink" x="0px" y="0px"
	 viewBox="0 0 79 70" style="enable-background:new 0 0 79 70;" xml:space="preserve">
<style type="text/css">
	.st0{fill:none;}
	.st1{fill:#FFFFFF;}
</style>
<g id="Layer_1">
	<g>
		<path class="st0" d="M16.4,52.9c-1,14.6,8.6,15.5,9.7,15.7s13.5,2.5,21-4.5c7.5-7,9.2-14.1,12.9-30.8c0.2-0.7,0.3-1.5,0.5-2.2
			c1.3-6.2,2.4-13.2,1.1-19.5c-0.8-4-2.9-7.7-7-9.1c-1.8-0.6-3.7-1-5.6-1.2c-5.1-0.5-10.5,0.5-14.9,3.1c-4.4,2.7-7.3,6.9-9.6,11.5
			C22,20.6,17.4,37.6,16.4,52.9z M34.9,32.2l18.2-15.2L41,38.5l-13,11.2L34.9,32.2z"/>
		<g>
			<path class="st1" d="M9.7,19.1c-0.9,2.6-1.7,5.3-2.4,7.9c-1.8,7.3-3.5,15.2-4,22.7C2.8,56.7,3.6,63.8,7,70h51
				c8.6-8.9,11.6-21.2,14.3-33.2c2.1-9.1,4-19.6,1.7-28.8c-0.7-2.8-1.8-5.5-3.2-8H21C15.9,5.3,12.2,12,9.7,19.1z M34.1,4.4
				c4.4-2.7,9.8-3.7,14.9-3.1c1.9,0.2,3.8,0.6,5.6,1.2c4,1.4,6.1,5.1,7,9.1c1.3,6.3,0.1,13.3-1.1,19.5c-0.2,0.7-0.3,1.5-0.5,2.2
				C56.2,50,54.5,57.2,47,64.1c-7.5,7-19.9,4.7-21,4.5s-10.7-1.2-9.7-15.7c1.1-15.3,5.7-32.3,8-37C26.7,11.3,29.6,7.1,34.1,4.4z"/>
		</g>
		<g>
			<polygon class="st1" points="53.1,16.9 34.9,32.2 28.1,49.7 41,38.5 			"/>
		</g>
	</g>
</g>
<g id="Layer_3">
</g>
</svg>
