<svg width="57" height="50" viewBox="0 0 57 50" fill="none" xmlns="http://www.w3.org/2000/svg">
<path d="M0.236985 26.8452C0.710997 25.7765 1.42201 25.4203 2.48854 25.539C4.50309 25.539 6.63616 25.539 8.65072 25.539C10.0728 25.539 10.7838 26.2515 10.7838 27.5576C10.7838 30.2887 10.7838 33.0198 10.7838 35.6321C10.7838 35.8696 10.7838 35.9884 10.7838 36.3446C11.3763 36.3446 11.9688 36.3446 12.4428 36.3446C13.6279 36.3446 14.9314 36.3446 16.1164 36.3446C16.3534 36.3446 16.5904 36.2258 16.8274 36.1071C18.368 34.0885 19.9085 32.1886 21.5676 30.17C21.0935 29.9325 20.738 29.695 20.3825 29.4575C15.0499 26.4889 9.83575 23.4016 4.50311 20.4331C3.19957 19.7206 2.96255 18.7707 3.67357 17.5832C4.62159 15.9208 5.56964 14.2584 6.39916 12.7148C5.56964 11.6461 5.45112 11.1711 6.16214 9.98371C7.82119 7.01514 9.48025 4.16532 11.1393 1.19675C11.8503 0.00932405 12.7983 -0.346904 13.9834 0.365552C27.8482 8.32131 41.5946 16.1583 55.4595 24.1141C56.052 24.4703 56.6445 24.8265 57 25.539C57 25.7765 57 26.1327 57 26.4889C56.763 27.2014 56.1705 27.6764 55.4595 27.9139C54.63 28.1513 53.8004 28.6263 52.9709 28.8638C53.8004 29.8137 53.9189 30.4075 53.3264 31.4761C51.7859 34.2072 50.1268 36.9383 48.5863 39.6694C47.8753 40.8568 46.9272 41.0943 45.7422 40.3818C44.7942 39.7881 43.8461 39.3132 42.7796 38.7194C42.6611 38.9569 42.4241 39.1944 42.3056 39.4319C41.4761 40.8568 40.6466 41.0943 39.343 40.2631C36.1434 38.482 32.9439 36.5821 29.7443 34.8009C27.9667 33.851 26.3077 32.7823 24.5301 31.8324C24.4116 31.9511 24.2931 32.0699 24.1746 32.1886C22.3971 34.4447 20.6196 36.7008 18.9605 38.9569C18.4865 39.6694 17.7755 39.9069 16.9459 39.9069C15.0499 39.9069 13.1539 39.9069 11.2578 39.9069C11.0208 39.9069 10.7838 39.9069 10.5468 39.9069C10.5468 40.1444 10.5468 40.3818 10.5468 40.6193C10.5468 42.9942 10.5468 45.4878 10.5468 47.8626C10.5468 49.2875 9.83573 50 8.4137 50C6.39914 50 4.26611 50 2.25155 50C1.18502 50 0.474013 49.6438 0 48.6938C0.237006 41.3318 0.236985 34.0885 0.236985 26.8452ZM9.95426 10.4587C10.7838 10.9337 11.4948 11.4086 12.3243 11.7649C22.2786 17.4645 32.3513 23.1641 42.3056 28.8638C42.5426 28.9825 42.7796 29.1013 43.1352 28.8638C44.2017 28.3888 45.2682 28.0326 46.3347 27.5576C47.9938 26.9639 49.5343 26.2515 51.1934 25.539C38.632 18.2957 26.0707 11.1711 13.5094 3.92783C12.4428 6.18394 11.2578 8.32131 9.95426 10.4587ZM42.0686 32.9011C31.1663 26.7264 20.3825 20.4331 9.59873 14.2584C8.88771 15.5646 8.1767 16.752 7.46569 17.9395C18.368 24.1141 29.1518 30.2887 40.0541 36.5821C40.7651 35.2759 41.4761 34.0885 42.0686 32.9011ZM3.79208 29.1013C3.79208 34.9197 3.79208 40.6193 3.79208 46.4377C4.97711 46.4377 6.04366 46.4377 7.11019 46.4377C7.11019 40.6193 7.11019 34.9197 7.11019 29.1013C6.04366 29.1013 4.97711 29.1013 3.79208 29.1013ZM49.5343 30.8824C49.1788 30.7637 48.9418 30.5262 48.7048 30.5262C48.2308 30.6449 47.5198 30.8824 47.2828 31.2387C46.3347 32.6636 45.5052 34.2072 44.6757 35.6321C45.2682 35.9884 45.7422 36.2258 46.3347 36.5821C47.4012 34.6822 48.4678 32.7823 49.5343 30.8824Z" fill="#C01E27"/>
</svg>
